<svg xmlns="http://www.w3.org/2000/svg" xmlns:xlink="http://www.w3.org/1999/xlink" viewBox="45.76407141 219.14160666 548.47185718 201.71678669" width="548.47" height="201.72"><defs><path d="M123.45 248.73l-18.88 139.68-10.92-2.65 17.38-141.01 12.42 3.98z" id="a"/><path d="M115.2 256.55c-3.81-4.65-.06-4.7 11.27-.14 11.33 4.55 17.6 10.3 18.82 17.23l-.04 19.16c4.84-3.44 7.75-10.61 8.74-21.52.99-10.91-13.02-19.75-42.04-26.53l3.25 11.8z" id="b"/><path d="M104.99 388.41c0 10.78-13.27 19.53-29.61 19.53-16.35 0-29.62-8.75-29.62-19.53 0-10.78 13.27-19.53 29.62-19.53 16.34 0 29.61 8.75 29.61 19.53z" id="c"/><path d="M233.71 393.45l14.17-93.56-39.69 51.03-37.49-56.39-45.36 126.33 108.37-27.41z" id="e"/><path d="M269.13 315.66l51.57-15.65-5.94 38.71-51.01 16.66 5.38-39.72z" id="f"/><path d="M275.09 347.14l-8.2 28.31 43.81-13.07-2.4 8.75-52.46 16.3 8.59-35.49 10.66-4.8z" id="g"/><path d="M345.39 271.95l-9.14 80.34 55.13-17.33-1.57 10.71-65.53 20.79 8.19-78.44 12.92-16.07z" id="h"/><path d="M465.93 321.73l7.87-99.04-62.38 21.51-9.45 97.75 63.96-20.22z" id="i"/><path d="M480.66 273.86v-54.72l24.51 47.26 2.77 28.04-4.18 47.51-16.64 11.99-13.32-30.1 6.86-49.98z" id="j"/><path d="M549.44 319.21l1.74 35.18 18.05 10.32-1.38-44.23 26.39-83.93-22.92 5.29-15.97 54.44-20.14-34.78-19.1 5.3 33.33 52.41z" id="k"/></defs><use xlink:href="#a"/><use xlink:href="#b"/><use xlink:href="#c"/><use xlink:href="#d"/><use xlink:href="#d" fill-opacity="0" stroke="#2a0e27"/><use xlink:href="#e"/><use xlink:href="#f"/><use xlink:href="#g"/><use xlink:href="#h"/><use xlink:href="#i"/><g><use xlink:href="#j"/></g><g><use xlink:href="#k"/></g></svg>